<?xml version="1.0" encoding="UTF-8" standalone="no"?>
<!-- Created with Inkscape (http://www.inkscape.org/) -->

<svg
   version="1.1"
   id="svg2"
   width="6666.6665"
   height="3888"
   viewBox="0 0 6666.6665 3888"
   sodipodi:docname="dr10.eps"
   xmlns:inkscape="http://www.inkscape.org/namespaces/inkscape"
   xmlns:sodipodi="http://sodipodi.sourceforge.net/DTD/sodipodi-0.dtd"
   xmlns="http://www.w3.org/2000/svg"
   xmlns:svg="http://www.w3.org/2000/svg">
  <defs
     id="defs6" />
  <sodipodi:namedview
     id="namedview4"
     pagecolor="#ffffff"
     bordercolor="#000000"
     borderopacity="0.25"
     inkscape:showpageshadow="2"
     inkscape:pageopacity="0.0"
     inkscape:pagecheckerboard="0"
     inkscape:deskcolor="#d1d1d1" />
  <g
     id="g8"
     inkscape:groupmode="layer"
     inkscape:label="ink_ext_XXXXXX"
     transform="matrix(1.3333333,0,0,-1.3333333,0,3888)">
    <g
       id="g10"
       transform="scale(0.1)">
      <path
         d="M 0,0 H 50000 V 29160 H 0 Z"
         style="fill:#003333;fill-opacity:1;fill-rule:evenodd;stroke:none"
         id="path12" />
      <path
         d="m 50000,9168.6 c -1522.9,1538.4 -3921,2576.1 -7562.6,2576.1 -1583.4,0 -3402.5,-196.3 -5485.8,-633.1 -550.8,-115.5 -1065.2,-169.9 -1548.4,-169.9 -4055.9,0 -5877.9,3841.5 -7991.5,7682.7 -2113.8,3841.5 -4518.7,7682.5 -9743.2,7682.5 -2431.9,0 -5475.4,-832.8 -9383.59,-2885.3 C 6866.4,22676.7 5626.34,22386.3 4504.95,22386.3 2796.27,22386.3 1363.72,23061 0,23829.5 v 1358.8 c 1363.72,-812.4 2796.27,-1525.5 4504.95,-1525.5 1121.39,0 2361.45,306.9 3779.96,1094.2 3908.19,2169.6 6951.69,3049.9 9383.59,3049.9 5224.5,0 7629.4,-4060 9743.2,-8120.5 2113.6,-4060.3 3935.6,-8120.8 7991.5,-8120.8 483.1,0 997.6,57.5 1548.4,179.6 2083.3,461.7 3902.4,669.2 5485.8,669.2 3641.5,0 6039.7,-1096.9 7562.6,-2723 v -522.8"
         style="fill:#509d68;fill-opacity:1;fill-rule:nonzero;stroke:none"
         id="path14" />
      <path
         d="m 50000,8442.5 c -1522.9,1416.6 -3921,2372.1 -7562.6,2372.1 -1583.4,0 -3402.5,-180.8 -5485.8,-583 -550.8,-106.3 -1065.2,-156.4 -1548.4,-156.4 -4055.9,0 -5877.9,3537.2 -7991.5,7074.3 -2113.8,3537.2 -4518.7,7074 -9743.2,7074 -2431.9,0 -5475.4,-766.8 -9383.59,-2656.8 -1418.51,-685.9 -2658.59,-953.2 -3779.98,-953.2 -1708.68,0 -3141.21,621.2 -4504.93,1328.9 v 1887.1 c 1363.72,-768.5 2796.27,-1443.2 4504.95,-1443.2 1121.39,0 2361.45,290.4 3779.96,1035.3 3908.19,2052.5 6951.69,2885.3 9383.59,2885.3 5224.5,0 7629.4,-3841 9743.2,-7682.5 2113.6,-3841.2 3935.6,-7682.7 7991.5,-7682.7 483.2,0 997.6,54.4 1548.4,169.9 2083.3,436.8 3902.4,633.1 5485.8,633.1 3641.6,0 6039.7,-1037.7 7562.6,-2576.1 v -726.1"
         style="fill:#76d082;fill-opacity:1;fill-rule:nonzero;stroke:none"
         id="path16" />
      <path
         d="m 50000,7513.1 c -1522.9,1260.6 -3921.1,2111 -7562.7,2111 -1583.3,0 -3402.4,-160.9 -5485.7,-518.8 -550.8,-94.6 -1065.3,-139.2 -1548.4,-139.2 -4055.9,0 -5877.9,3147.8 -7991.5,6295.4 -2113.8,3147.9 -4518.6,6295.4 -9743.2,6295.4 -2431.9,0 -5475.4,-682.5 -9383.59,-2364.4 -1418.51,-610.4 -2658.57,-848.3 -3779.96,-848.3 -1708.68,0 -3141.23,552.9 -4504.95,1182.6 v 2415.6 c 1363.72,-707.7 2796.25,-1328.9 4504.93,-1328.9 1121.39,0 2361.47,267.3 3779.98,953.2 3908.19,1890 6951.69,2656.8 9383.59,2656.8 5224.5,0 7629.4,-3536.8 9743.2,-7074 2113.6,-3537.1 3935.6,-7074.3 7991.5,-7074.3 483.2,0 997.6,50.1 1548.4,156.4 2083.3,402.2 3902.4,583 5485.8,583 3641.6,0 6039.7,-955.5 7562.6,-2372.1 v -929.4"
         style="fill:#88e98e;fill-opacity:1;fill-rule:nonzero;stroke:none"
         id="path18" />
      <path
         d="m 50000,6554.7 c -1522.9,1099.8 -3921,1841.7 -7562.6,1841.7 -1583.4,0 -3402.5,-140.4 -5485.8,-452.7 -550.8,-82.5 -1065.2,-121.4 -1548.4,-121.4 -4055.9,0 -5877.9,2746.3 -7991.5,5492.3 -2113.8,2746.3 -4518.7,5492.3 -9743.2,5492.3 -2431.9,0 -5475.4,-595.4 -9383.59,-2062.7 -1418.51,-532.6 -2658.59,-740.1 -3779.97,-740.1 -1708.69,0 -3141.22,482.3 -4504.94,1031.7 v 2491 c 1363.72,-629.7 2796.27,-1182.6 4504.95,-1182.6 1121.39,0 2361.45,237.9 3779.96,848.3 3908.19,1681.9 6951.69,2364.4 9383.59,2364.4 5224.6,0 7629.4,-3147.5 9743.2,-6295.4 2113.6,-3147.6 3935.6,-6295.4 7991.5,-6295.4 483.1,0 997.6,44.6 1548.4,139.2 2083.3,357.9 3902.4,518.8 5485.7,518.8 3641.6,0 6039.8,-850.4 7562.7,-2111 v -958.4"
         style="fill:#91f494;fill-opacity:1;fill-rule:nonzero;stroke:none"
         id="path20" />
      <path
         d="m 50000,5712.4 c -1522.9,958.5 -3921,1605 -7562.6,1605 -1583.4,0 -3402.5,-122.3 -5485.8,-394.4 -550.8,-72 -1065.3,-105.9 -1548.4,-105.9 -4055.9,0 -5877.9,2393.4 -7991.5,4786.6 -2113.8,2393.4 -4518.6,4786.5 -9743.2,4786.5 -2431.9,0 -5475.4,-518.9 -9383.59,-1797.7 -1418.51,-464.1 -2658.56,-644.9 -3779.94,-644.9 -1708.69,0 -3141.25,420.3 -4504.97,899.1 v 2189.1 c 1363.72,-549.4 2796.25,-1031.7 4504.94,-1031.7 1121.38,0 2361.46,207.5 3779.97,740.1 3908.19,1467.3 6951.69,2062.7 9383.59,2062.7 5224.5,0 7629.4,-2746 9743.2,-5492.3 2113.6,-2746 3935.6,-5492.3 7991.5,-5492.3 483.2,0 997.6,38.9 1548.4,121.4 2083.3,312.3 3902.4,452.7 5485.8,452.7 3641.6,0 6039.7,-741.9 7562.6,-1841.7 v -842.3"
         style="fill:#95fa97;fill-opacity:1;fill-rule:nonzero;stroke:none"
         id="path22" />
      <path
         d="m 50000,5081.5 c -1522.9,852.6 -3921,1427.8 -7562.6,1427.8 -1583.4,0 -3402.5,-108.9 -5485.8,-350.9 -550.8,-64 -1065.2,-94.2 -1548.4,-94.2 -4055.9,0 -5877.9,2129.1 -7991.5,4258 -2113.8,2129 -4518.6,4257.8 -9743.2,4257.8 -2431.9,0 -5475.4,-461.6 -9383.59,-1599.1 C 6866.4,12568 5626.34,12407.1 4504.95,12407.1 2796.27,12407.1 1363.72,12781 0,13207 v 1639.7 c 1363.72,-478.8 2796.28,-899.1 4504.97,-899.1 1121.38,0 2361.43,180.8 3779.94,644.9 3908.19,1278.8 6951.69,1797.7 9383.59,1797.7 5224.6,0 7629.4,-2393.1 9743.2,-4786.5 2113.6,-2393.2 3935.6,-4786.6 7991.5,-4786.6 483.1,0 997.6,33.9 1548.4,105.9 2083.3,272.1 3902.4,394.4 5485.8,394.4 3641.6,0 6039.7,-646.5 7562.6,-1605 v -630.9"
         style="fill:#97fd98;fill-opacity:1;fill-rule:nonzero;stroke:none"
         id="path24" />
      <path
         d="m 50000,4335 c -1522.9,727.4 -3921,1218.1 -7562.6,1218.1 -1583.4,0 -3402.5,-92.9 -5485.8,-299.4 -550.8,-54.6 -1065.2,-80.3 -1548.4,-80.3 -4055.9,0 -5877.9,1816.3 -7991.5,3632.5 -2113.8,1816.3 -4518.6,3632.3 -9743.2,3632.3 -2431.9,0 -5475.4,-393.7 -9383.59,-1364.2 -1418.51,-352.2 -2658.53,-489.4 -3779.92,-489.4 -1708.68,0 -3141.27,318.9 -4504.99,682.3 L 0,13207 c 1363.72,-426 2796.27,-799.9 4504.95,-799.9 1121.39,0 2361.45,160.9 3779.96,573.8 3908.19,1137.5 6951.69,1599.1 9383.59,1599.1 5224.6,0 7629.4,-2128.8 9743.2,-4257.8 2113.6,-2128.9 3935.6,-4258 7991.5,-4258 483.2,0 997.6,30.2 1548.4,94.2 2083.3,242 3902.4,350.9 5485.8,350.9 3641.6,0 6039.7,-575.2 7562.6,-1427.8 V 4335"
         style="fill:#98fe99;fill-opacity:1;fill-rule:nonzero;stroke:none"
         id="path26" />
      <path
         d="M 50000,0 H 0 v 11266.9 c 1363.72,-363.4 2796.31,-682.3 4504.99,-682.3 1121.39,0 2361.41,137.2 3779.92,489.4 3908.19,970.5 6951.69,1364.2 9383.59,1364.2 5224.6,0 7629.4,-1816 9743.2,-3632.3 2113.6,-1816.2 3935.6,-3632.5 7991.5,-3632.5 483.2,0 997.6,25.7 1548.4,80.3 2083.3,206.5 3902.4,299.4 5485.8,299.4 3641.6,0 6039.7,-490.7 7562.6,-1218.1 V 0"
         style="fill:#99ff99;fill-opacity:1;fill-rule:nonzero;stroke:none"
         id="path28" />
    </g>
  </g>
</svg>
